# xmcd
#
# Track frame offsets:
# 150
# 12425
# 30548
# 50111
# 67422
# 86801
# 105437
# 124196
# 143063
# 168274
# 185503
# 205614
# 222028
# 237526
# 254378
# 272205
# 287058
# 303338
#
# Disc length: 4342 seconds
#
# Revision: 0
# Processed by: cddbd v1.5PL3 Copyright (c) Steve Scherf et al.
# Submitted via: Audion 3.0.2 (http://www.panic.com/audion/)
#
DISCID=1010f412
DTITLE=? - ?
DYEAR=1900
DGENRE=
TTITLE0=?????
TTITLE1=?????
TTITLE2=?????
TTITLE3=?????
TTITLE4=?????
TTITLE5=?????
TTITLE6=?????
TTITLE7=?????
TTITLE8=?????
TTITLE9=?????
TTITLE10=?????
TTITLE11=?????
TTITLE12=?????
TTITLE13=?????
TTITLE14=?????
TTITLE15=?????
TTITLE16=?????
TTITLE17=?????
EXTD=
EXTT0=
EXTT1=
EXTT2=
EXTT3=
EXTT4=
EXTT5=
EXTT6=
EXTT7=
EXTT8=
EXTT9=
EXTT10=
EXTT11=
EXTT12=
EXTT13=
EXTT14=
EXTT15=
EXTT16=
EXTT17=
PLAYORDER=
